<?xml version="1.0" encoding="UTF-8"?>
<svg xmlns="http://www.w3.org/2000/svg" width="67.087" height="67" viewBox="0 0 67.087 67">
  <g id="noun-business-2251595" transform="translate(-10.902 -10.989)">
    <g id="Group_84638" data-name="Group 84638" transform="translate(10.902 10.989)">
      <path id="Path_116" data-name="Path 116" d="M72.045,11a.859.859,0,0,0-.429.215l-4.643,4.133a.859.859,0,0,0-.268.51l-1.02,5.69L58.6,28.6a23.048,23.048,0,0,0-31.428-.349A23.5,23.5,0,0,0,19.548,43.5a23.748,23.748,0,0,0,4.777,16.452,23.267,23.267,0,0,0,31.294,5.126,23.316,23.316,0,0,0,7.273-30.972.858.858,0,1,0-1.449.805A22.093,22.093,0,0,1,63.617,50.64a21.63,21.63,0,0,1-24.4,16.372,21.648,21.648,0,1,1,18.17-37.2l-4,3.972a15.969,15.969,0,1,0-3.14,25.9,15.961,15.961,0,0,0,7.193-20.1.867.867,0,1,0-1.61.644,14.3,14.3,0,0,1-6.388,17.928A14.223,14.223,0,0,1,28.592,43.849a14.525,14.525,0,0,1,4.777-9.018,14.142,14.142,0,0,1,18.787.161l-4,4A8.521,8.521,0,0,0,37.449,38.8a8.632,8.632,0,0,0-2.523,10.467,8.574,8.574,0,0,0,16.345-3.65.859.859,0,1,0-1.718,0,6.906,6.906,0,0,1-5.395,6.737,6.81,6.81,0,0,1-7.676-3.811,6.9,6.9,0,0,1,2.04-8.374,6.8,6.8,0,0,1,8.4.054L42.2,44.95a.859.859,0,1,0,1.208,1.208l15.674-15.62h.027a.859.859,0,0,0,.322-.322q0-.013,0-.027l7.434-7.381,5.717-.644a.859.859,0,0,0,.483-.215l4.616-4.133a.859.859,0,0,0-.215-1.449l-3.328-1.449-1.154-3.355A.859.859,0,0,0,72.045,11ZM43.193,13.226a.859.859,0,0,0-.859.886v2.469a.859.859,0,1,0,1.718,0V14.112a.859.859,0,0,0-.859-.886Zm28.61.107.859,2.523a.859.859,0,0,0,.456.51l2.442,1.047L72.125,20.5l-4.589.483.805-4.536ZM11.684,44.762a.863.863,0,0,0,.161,1.718h2.469a.859.859,0,1,0,0-1.718H11.845A.859.859,0,0,0,11.684,44.762Zm60.254,0a.863.863,0,1,0,.161,1.718h2.469a.859.859,0,1,0,0-1.718H72.1A.859.859,0,0,0,71.937,44.762ZM43.032,73.775a.859.859,0,0,0-.7.859v2.5a.859.859,0,1,0,1.718,0v-2.5a.859.859,0,0,0-1.02-.859Z" transform="translate(-10.902 -10.989)" fill="#fff"></path>
    </g>
  </g>
</svg>
