<?xml version="1.0" encoding="UTF-8"?>
<svg xmlns="http://www.w3.org/2000/svg" width="64" height="64" viewBox="0 0 64 64">
  <g id="noun-infotech-2251183" transform="translate(0)">
    <path id="Path_8" data-name="Path 8" d="M58.4,8.546c.03.03.065.052.1.079V13.5h2V8.625c.032-.027.067-.049.1-.079L63.546,5.6a1.551,1.551,0,0,0,0-2.194L60.6.454a1.551,1.551,0,0,0-2.193,0L55.455,3.4a1.551,1.551,0,0,0,0,2.194Zm1.1-6.36L61.814,4.5,59.5,6.814,57.186,4.5Z" transform="translate(-27.5)" fill="#fff"></path>
    <path id="Path_9" data-name="Path 9" d="M109.546,58.4,106.6,55.454a1.551,1.551,0,0,0-2.193,0L101.455,58.4c-.03.03-.052.065-.079.1H92v2h9.376c.027.032.049.067.079.1l2.949,2.949a1.551,1.551,0,0,0,2.193,0l2.948-2.949a1.551,1.551,0,0,0,0-2.194ZM105.5,61.814,103.186,59.5l2.314-2.314,2.314,2.314Z" transform="translate(-46 -27.5)" fill="#fff"></path>
    <path id="Path_10" data-name="Path 10" d="M20.493,26h4.015c.024,0,.047-.006.071-.007L27.5,28.914V27a4,4,0,0,1,.087-.827l-1.594-1.594c0-.024.007-.047.007-.072V20.493A1.493,1.493,0,0,0,24.507,19H20.492A1.493,1.493,0,0,0,19,20.493v4.014A1.493,1.493,0,0,0,20.493,26ZM21,21h3v3H21Z" transform="translate(-9.5 -9.5)" fill="#fff"></path>
    <path id="Path_11" data-name="Path 11" d="M99.007,92.085H94.993c-.024,0-.047.006-.071.007L92,89.171V92l1.507,1.507c0,.024-.007.048-.007.072v4.015a1.493,1.493,0,0,0,1.493,1.492h4.014a1.494,1.494,0,0,0,1.494-1.493V93.578a1.492,1.492,0,0,0-1.493-1.492Zm-3.507,5v-3h3v3Z" transform="translate(-46 -44.585)" fill="#fff"></path>
    <path id="Path_12" data-name="Path 12" d="M63.993,73.538a2.916,2.916,0,0,0-2.92-2.9h-.008a2.95,2.95,0,0,0-1.166.24,2.928,2.928,0,0,0-2.824-2.17h-.012a2.94,2.94,0,0,0-1.019.184,2.927,2.927,0,0,0-2.811-2.135,3.021,3.021,0,0,0-1,.183l.015-4.035a2.848,2.848,0,0,0-.857-2.056A2.935,2.935,0,0,0,49.328,60h-.013a2.929,2.929,0,0,0-2.055.831,2.851,2.851,0,0,0-.872,2.048l-.044,11.947a6,6,0,0,0-2.491-2.015,2.909,2.909,0,0,0-2.282.1,2.334,2.334,0,0,0-1.387,1.376c-.514,1.338.016,3.15,1.621,5.54l4.729,8.366A2.5,2.5,0,0,0,45,90.5V93a1,1,0,0,0,2,0V90.5a.5.5,0,0,1,.5-.5h14a.5.5,0,0,1,.5.5V93a1,1,0,0,0,2,0V90.5a2.494,2.494,0,0,0-1.179-2.114,44.589,44.589,0,0,0,1.141-7.954C63.961,80.406,63.993,73.538,63.993,73.538ZM43.485,78.743c-1.652-2.45-1.525-3.452-1.447-3.7a.482.482,0,0,1,.143-.226.455.455,0,0,0,.217-.082.919.919,0,0,1,.78-.043,3.17,3.17,0,0,1,1.2.9,10.034,10.034,0,0,1,1.118,1.5,14.019,14.019,0,0,1,.793,1.45,1.534,1.534,0,0,0,.5.715,1.007,1.007,0,0,0,1.544-.837l.057-15.535a.867.867,0,0,1,.267-.622A1.03,1.03,0,0,1,49.318,62a.947.947,0,0,1,.666.271.863.863,0,0,1,.261.623l-.057,15.55a1.037,1.037,0,0,0,2.069-.063l.033-8.738a.93.93,0,0,1,1.858.008L54.1,78.478a1,1,0,1,0,2,.009l.037-6.964A.931.931,0,0,1,58,71.6l-.027,6.812a1.13,1.13,0,0,0,1.141,1.051,1,1,0,0,0,1-1l.023-4.948a.931.931,0,0,1,1.86.009l-.025,6.635A43.009,43.009,0,0,1,60.85,88H48.721l-5.195-9.19C43.513,78.787,43.5,78.765,43.485,78.743Z" transform="translate(-19.997 -30)" fill="#fff"></path>
    <path id="Path_13" data-name="Path 13" d="M63,41a1,1,0,0,0,0-2H59a1,1,0,0,0,0,2Z" transform="translate(-29 -19.5)" fill="#fff"></path>
    <path id="Path_14" data-name="Path 14" d="M91.913,27v1.913l2.921-2.921c.024,0,.047.007.072.007H98.92a1.492,1.492,0,0,0,1.493-1.493V20.493A1.493,1.493,0,0,0,98.92,19H94.905a1.493,1.493,0,0,0-1.493,1.493v4.014c0,.024.006.047.007.071l-1.594,1.594A4,4,0,0,1,91.913,27Zm3.5-6h3v3h-3Z" transform="translate(-45.913 -9.5)" fill="#fff"></path>
    <path id="Path_15" data-name="Path 15" d="M18,60.5v-2H8.625c-.027-.032-.049-.067-.079-.1L5.6,55.454a1.551,1.551,0,0,0-2.193,0L.455,58.4a1.551,1.551,0,0,0,0,2.194L3.4,63.546a1.551,1.551,0,0,0,2.193,0L8.546,60.6c.03-.03.052-.065.079-.1ZM4.5,61.814,2.186,59.5,4.5,57.186,6.814,59.5Z" transform="translate(0 -27.5)" fill="#fff"></path>
    <path id="Path_16" data-name="Path 16" d="M27.5,89.17l-2.922,2.922c-.024,0-.047-.007-.071-.007H20.492A1.493,1.493,0,0,0,19,93.578v4.013a1.494,1.494,0,0,0,1.493,1.494h4.015A1.492,1.492,0,0,0,26,97.592V93.578c0-.025-.006-.048-.007-.073L27.5,92ZM24,97.085H21v-3h3Z" transform="translate(-9.5 -44.585)" fill="#fff"></path>
    <path id="Path_17" data-name="Path 17" d="M40,56.983a4.215,4.215,0,0,1,.806-.419A4.925,4.925,0,0,1,42,56.2V33H62V54.228a4.921,4.921,0,0,1,2,.879V33a2,2,0,0,0-2-2H42a2,2,0,0,0-2,2Z" transform="translate(-20 -15.5)" fill="#fff"></path>
  </g>
</svg>
