<?xml version="1.0" encoding="UTF-8"?>
<svg xmlns="http://www.w3.org/2000/svg" width="79.684" height="55.395" viewBox="0 0 79.684 55.395">
  <g id="noun-automotive-1951849" transform="translate(542.461 811)">
    <g id="Group_30" data-name="Group 30" transform="translate(-542.461 -811)">
      <path id="Path_23" data-name="Path 23" d="M34.976,41.914V28.42a1.42,1.42,0,1,0-2.841,0V41.914A5.2,5.2,0,0,0,28.3,47.027a5.256,5.256,0,1,0,6.676-5.113Zm-1.42,7.528a2.415,2.415,0,1,1,2.415-2.415A2.489,2.489,0,0,1,33.555,49.442Z" transform="translate(6.357 -7.115)" fill="#fff"></path>
      <path id="Path_24" data-name="Path 24" d="M43.812,13A40.124,40.124,0,0,0,5.32,63.707l1.42,4.687H80.884l1.278-4.829A40,40,0,0,0,43.812,13ZM79.464,62.855l-.71,2.7H8.871l-.71-2.7a40.01,40.01,0,0,1-1.42-9.943,37.072,37.072,0,1,1,74.143,0A40.01,40.01,0,0,1,79.464,62.855Z" transform="translate(-3.9 -13)" fill="#fff"></path>
      <path id="Path_25" data-name="Path 25" d="M42.3,16.6A34.856,34.856,0,0,0,7.5,51.4a35.491,35.491,0,0,0,1.278,9.374l.284.994H75.394l.284-.994A35.492,35.492,0,0,0,76.956,51.4,34.644,34.644,0,0,0,42.3,16.6ZM11.335,58.927a45.107,45.107,0,0,1-.852-6.108h3.693a1.42,1.42,0,1,0,0-2.841H10.483a30.628,30.628,0,0,1,3.551-13.351L17.3,38.474a1.28,1.28,0,0,0,.71.142,1.7,1.7,0,0,0,1.278-.71,1.437,1.437,0,0,0-.568-1.989l-3.267-1.7a32.947,32.947,0,0,1,9.659-9.659l1.846,3.267a1.492,1.492,0,0,0,1.278.71,1.28,1.28,0,0,0,.71-.142,1.573,1.573,0,0,0,.568-1.989l-1.846-3.267a30.113,30.113,0,0,1,13.351-3.551v3.693a1.42,1.42,0,1,0,2.841,0V19.583a30.628,30.628,0,0,1,13.351,3.551L55.366,26.4a1.437,1.437,0,0,0,.568,1.989,1.28,1.28,0,0,0,.71.142,1.7,1.7,0,0,0,1.278-.71l1.846-3.267a32.947,32.947,0,0,1,9.659,9.659l-3.267,1.846a1.573,1.573,0,0,0-.568,1.989,1.492,1.492,0,0,0,1.278.71,1.281,1.281,0,0,0,.71-.142l3.267-1.846A30.113,30.113,0,0,1,74.4,50.121H70.706a1.42,1.42,0,1,0,0,2.841H74.4a42.167,42.167,0,0,1-.852,6.108H11.335Z" transform="translate(-2.387 -11.487)" fill="#fff"></path>
    </g>
  </g>
</svg>
