<?xml version="1.0" encoding="UTF-8"?>
<svg xmlns="http://www.w3.org/2000/svg" width="62.599" height="62.6" viewBox="0 0 62.599 62.6">
  <g id="noun-healthcare-1552341" transform="translate(-3.301 -3.3)">
    <g id="Group_27" data-name="Group 27" transform="translate(3.801 3.8)">
      <g id="Group_25" data-name="Group 25" transform="translate(14.042 13.571)">
        <path id="Path_6" data-name="Path 6" d="M45.594,58.615H37.649V45.249H24.864V37.521H37.649V24.156h7.945V37.521H58.379v7.728H45.594Zm-6.612-1.333h5.279V43.915H57.045V38.854H44.261V25.489H38.982V38.854H26.2v5.061H38.982Z" transform="translate(-24.864 -24.156)" fill="#fff" stroke="#fff" stroke-width="1"></path>
      </g>
      <g id="Group_26" data-name="Group 26">
        <path id="Path_7" data-name="Path 7" d="M34.6,65.4A30.8,30.8,0,1,1,65.4,34.6,30.834,30.834,0,0,1,34.6,65.4Zm0-60.267A29.467,29.467,0,1,0,64.066,34.6,29.5,29.5,0,0,0,34.6,5.133Z" transform="translate(-3.801 -3.8)" fill="#fff" stroke="#fff" stroke-width="1"></path>
      </g>
    </g>
  </g>
</svg>
