<?xml version="1.0" encoding="UTF-8"?>
<svg xmlns="http://www.w3.org/2000/svg" width="17.251" height="27.602" viewBox="0 0 17.251 27.602">
  <path id="Icon_metro-location" data-name="Icon metro-location" d="M16.98,1.928a8.625,8.625,0,0,0-8.625,8.625c0,8.625,8.625,18.976,8.625,18.976s8.625-10.35,8.625-18.976A8.625,8.625,0,0,0,16.98,1.928Zm0,13.908a5.283,5.283,0,1,1,5.283-5.283A5.283,5.283,0,0,1,16.98,15.836Zm-3.342-5.283A3.342,3.342,0,1,1,16.98,13.9,3.342,3.342,0,0,1,13.638,10.553Z" transform="translate(-8.355 -1.928)" fill="#bfb181"></path>
</svg>
