<?xml version="1.0" encoding="UTF-8"?>
<svg xmlns="http://www.w3.org/2000/svg" width="66.705" height="59.6" viewBox="0 0 66.705 59.6">
  <g id="noun-grocery-5471473" transform="translate(291 520.773)">
    <g id="Group_28" data-name="Group 28" transform="translate(-291 -520.773)">
      <path id="Path_18" data-name="Path 18" d="M65.369,30.363h-.111c.334-1.8,1.348-4.369.1-6.022-.942-1.74-3.4-1.943-5.112-2.332L61.2,17.63a2.513,2.513,0,0,0,2.7-1.972l.578-2.646h0a2.556,2.556,0,0,0-1.941-3.024L54.455,8.242a2.513,2.513,0,0,0-1.911.345c-1.318.758-1.284,2.9-1.679,4.241A2.529,2.529,0,0,0,52.5,15.742l-.948,4.381-2.549-.553a4.088,4.088,0,0,0-4.835,3.109l-.252,1.166a16.253,16.253,0,0,0-6.212-1.257c.347-1.968,1.1-3.825,2.589-4.572a1.112,1.112,0,0,0-.995-1.989c-2.475,1.237-3.481,4.071-3.862,6.7a14.518,14.518,0,0,0-8.258,3.7c-.175-.4-.347-.816-.521-1.212l-.046-.105C23.994,19.421,15.862,3.224,8.869,5.432c-4.9,2.026-3.061,14.052.833,24.93H5.335A3.339,3.339,0,0,0,2,33.7V41.48a3.339,3.339,0,0,0,3.335,3.335h.787l2.323,17a3.4,3.4,0,0,0,3.383,3.008H58.877a3.4,3.4,0,0,0,3.38-2.985l2.326-17.026h.787A3.339,3.339,0,0,0,68.7,41.48V33.7A3.339,3.339,0,0,0,65.369,30.363ZM53.616,10.651a.3.3,0,0,1,.367-.236l8.081,1.745a.307.307,0,0,1,.239.378l-.578,2.646a.3.3,0,0,1-.371.239l-4.282-.93c-.568-.125-3.287-.716-3.8-.825a.311.311,0,0,1-.24-.366Zm1.053,5.6,4.352.947-.949,4.344-4.344-.942Zm-8.324,6.9a1.854,1.854,0,0,1,2.19-1.406l3.629.787c.005.005,5.852,1.268,5.859,1.271l4.3.933a1.837,1.837,0,0,1,1.405,2.183l-.745,3.445H50.842a12.944,12.944,0,0,0-4.872-5.478Zm-11.1,1.838a22.889,22.889,0,0,0,.119,3.29A1.112,1.112,0,0,0,37.567,28a20.066,20.066,0,0,1-.1-3.194c4.411-.04,8.6,1.806,10.858,5.555H28.789q-.336-.864-.678-1.734A12.03,12.03,0,0,1,35.242,24.987ZM9.72,7.487c1.566-.653,5.22,1.871,9.67,8.834l-4.666,3.111a1.112,1.112,0,0,0,1.233,1.85l4.594-3.063q1.837,3.1,3.6,6.879l-3.783,2.066a1.112,1.112,0,1,0,1.066,1.951l3.631-1.983c.466,1.045.923,2.156,1.325,3.231H12.065C7.07,16.861,7.464,8.419,9.72,7.487ZM60.052,61.564a1.179,1.179,0,0,1-1.175,1.04H11.828a1.185,1.185,0,0,1-1.177-1.062L8.366,44.815H62.339Zm5.318-18.972H5.335A1.113,1.113,0,0,1,4.223,41.48V33.7a1.113,1.113,0,0,1,1.112-1.112H65.369A1.113,1.113,0,0,1,66.481,33.7v2.223H44.246a1.112,1.112,0,0,0,0,2.223H66.481V41.48A1.113,1.113,0,0,1,65.369,42.592Z" transform="translate(-2 -5.227)" fill="#fff"></path>
    </g>
  </g>
</svg>
