<?xml version="1.0" encoding="UTF-8"?>
<svg xmlns="http://www.w3.org/2000/svg" width="47.349" height="43.369" viewBox="0 0 47.349 43.369">
  <g id="noun-jobs-3849025" transform="translate(-2 -4.69)">
    <path id="Path_104" data-name="Path 104" d="M49.989,30.369a.741.741,0,0,1-.052-1.48A10.972,10.972,0,0,0,60.162,17.94a.74.74,0,0,1,1.48,0,12.451,12.451,0,0,1-11.6,12.429Z" transform="translate(-12.292 -3.255)" fill="#fff"></path>
    <path id="Path_105" data-name="Path 105" d="M13.645,30.369h-.052A12.451,12.451,0,0,1,2,17.94a.74.74,0,1,1,1.48,0A10.979,10.979,0,0,0,13.7,28.889a.741.741,0,0,1-.052,1.48Z" transform="translate(0 -3.255)" fill="#fff"></path>
    <path id="Path_106" data-name="Path 106" d="M38.424,34.48H23.96a.74.74,0,0,1,0-1.48H38.424a.74.74,0,0,1,0,1.48Z" transform="translate(-5.521 -7.365)" fill="#fff"></path>
    <path id="Path_107" data-name="Path 107" d="M45.65,51.048H5.7a3.7,3.7,0,0,1-3.7-3.7V16.92a.74.74,0,1,1,1.48,0V47.349a2.22,2.22,0,0,0,2.22,2.22H45.65a2.219,2.219,0,0,0,2.22-2.219V16.92a.74.74,0,1,1,1.48,0V47.349A3.7,3.7,0,0,1,45.65,51.048Z" transform="translate(0 -2.989)" fill="#fff"></path>
    <path id="Path_108" data-name="Path 108" d="M48.61,17.329a.74.74,0,0,1-.74-.74,2.22,2.22,0,0,0-2.22-2.22H5.7a2.22,2.22,0,0,0-2.22,2.22.74.74,0,0,1-1.48,0,3.7,3.7,0,0,1,3.7-3.7H45.65a3.7,3.7,0,0,1,3.7,3.7A.74.74,0,0,1,48.61,17.329Z" transform="translate(0 -2.133)" fill="#fff"></path>
    <path id="Path_109" data-name="Path 109" d="M38.951,12.236H22.86a.74.74,0,0,1-.74-.74V8.389a3.7,3.7,0,0,1,3.7-3.7H35.992a3.7,3.7,0,0,1,3.7,3.7V11.5A.74.74,0,0,1,38.951,12.236ZM23.6,10.757H38.211V8.389a2.22,2.22,0,0,0-2.22-2.22H25.819a2.22,2.22,0,0,0-2.22,2.22Z" transform="translate(-5.235 0)" fill="#fff"></path>
    <path id="Path_110" data-name="Path 110" d="M20.72,36.816H19.033a2.293,2.293,0,0,1-2.293-2.293V30.453a2.293,2.293,0,0,1,2.293-2.293H20.72a2.293,2.293,0,0,1,2.293,2.293v4.069a2.293,2.293,0,0,1-2.293,2.293ZM19.033,29.64a.814.814,0,0,0-.814.814v4.069a.821.821,0,0,0,.814.814H20.72a.814.814,0,0,0,.814-.814V30.453a.814.814,0,0,0-.814-.814Z" transform="translate(-3.835 -6.106)" fill="#fff"></path>
    <path id="Path_111" data-name="Path 111" d="M46.75,36.816H45.063a2.293,2.293,0,0,1-2.293-2.293V30.453a2.293,2.293,0,0,1,2.293-2.293H46.75a2.293,2.293,0,0,1,2.293,2.293v4.069A2.293,2.293,0,0,1,46.75,36.816ZM45.063,29.64a.814.814,0,0,0-.814.814v4.069a.814.814,0,0,0,.814.814H46.75a.814.814,0,0,0,.814-.814V30.453a.814.814,0,0,0-.814-.814Z" transform="translate(-10.607 -6.106)" fill="#fff"></path>
    <path id="Path_112" data-name="Path 112" d="M56.4,48.73H49.74a.74.74,0,0,1,0-1.48H56.4a.74.74,0,0,1,0,1.48Z" transform="translate(-12.228 -11.073)" fill="#fff"></path>
    <path id="Path_113" data-name="Path 113" d="M55.358,52.76H45.74a.74.74,0,0,1,0-1.48h9.618a.74.74,0,1,1,0,1.48Z" transform="translate(-11.187 -12.121)" fill="#fff"></path>
    <path id="Path_114" data-name="Path 114" d="M56.4,56.78H49.74a.74.74,0,1,1,0-1.48H56.4a.74.74,0,1,1,0,1.48Z" transform="translate(-12.228 -13.167)" fill="#fff"></path>
  </g>
</svg>
