<?xml version="1.0" encoding="UTF-8"?>
<svg xmlns="http://www.w3.org/2000/svg" width="24.166" height="24.164" viewBox="0 0 24.166 24.164">
  <path id="Icon_ionic-ios-call" data-name="Icon ionic-ios-call" d="M27.958,23.424a20.3,20.3,0,0,0-4.24-2.837c-1.271-.61-1.736-.6-2.636.05-.749.541-1.233,1.044-2.095.856s-2.56-1.472-4.209-3.114-2.932-3.347-3.114-4.209.321-1.346.856-2.095c.648-.9.667-1.365.05-2.636A19.9,19.9,0,0,0,9.733,5.2c-.925-.925-1.132-.723-1.642-.541a9.344,9.344,0,0,0-1.5.8A4.536,4.536,0,0,0,4.782,7.363c-.359.774-.774,2.214,1.34,5.977a33.348,33.348,0,0,0,5.863,7.82h0l.006.006.006.006h0a33.479,33.479,0,0,0,7.82,5.863c3.762,2.114,5.2,1.7,5.976,1.34A4.458,4.458,0,0,0,27.7,26.569a9.344,9.344,0,0,0,.8-1.5C28.682,24.556,28.889,24.349,27.958,23.424Z" transform="translate(-4.49 -4.503)" fill="#bfb181"></path>
</svg>
