<?xml version="1.0" encoding="UTF-8"?>
<svg xmlns="http://www.w3.org/2000/svg" width="44.002" height="59.993" viewBox="0 0 44.002 59.993">
  <g id="noun-solutions-5891440" transform="translate(-7.999 -0.007)">
    <g id="Group_84637" data-name="Group 84637">
      <path id="Path_103" data-name="Path 103" d="M43.787,39.151a22,22,0,1,0-27.56.011A7.421,7.421,0,0,1,18.956,44.2a2.984,2.984,0,0,0-.555,5.331A2.967,2.967,0,0,0,18,51a3,3,0,0,0,3,3h1.091c.558,3.386,3.887,6,7.909,6s7.351-2.614,7.909-6H39a3,3,0,0,0,3-3,2.967,2.967,0,0,0-.4-1.471,2.984,2.984,0,0,0-.555-5.331A7.464,7.464,0,0,1,43.787,39.151ZM49.95,21H45.583a5.037,5.037,0,0,0,.271-3.22,4.948,4.948,0,0,0-3.67-3.64A5,5,0,0,0,36,19a4.885,4.885,0,0,0,.425,2H31V15.574a2,2,0,0,0-2.8-1.823,3.047,3.047,0,0,1-1.95.158,3,3,0,0,1-1.6-4.773,3.052,3.052,0,0,1,3.535-.893,2.026,2.026,0,0,0,1.922-.158A1.978,1.978,0,0,0,31,6.425v-4.4A19.954,19.954,0,0,1,49.95,21ZM28.928,2.028H29l-.017,4.38A5,5,0,1,0,29,15.574V21H23.574a1.984,1.984,0,0,0-1.667.9,2.007,2.007,0,0,0-.156,1.906,3.045,3.045,0,0,1,.158,1.95,3,3,0,1,1-5.666-1.939,2.021,2.021,0,0,0-.158-1.922,1.978,1.978,0,0,0-1.66-.9H10.049A20.27,20.27,0,0,1,28.928,2.028ZM17.48,37.6A19.9,19.9,0,0,1,10.028,23l4.38.017A5,5,0,0,0,19,30a5.226,5.226,0,0,0,1.18-.136A4.983,4.983,0,0,0,23.574,23H29v5.425a1.978,1.978,0,0,0,.894,1.66,2.018,2.018,0,0,0,1.92.159,3.047,3.047,0,0,1,3.537.892,3,3,0,0,1-1.595,4.773,3.058,3.058,0,0,1-1.952-.158,2.008,2.008,0,0,0-1.9.156,1.984,1.984,0,0,0-.9,1.667V44H20.945A9.414,9.414,0,0,0,17.48,37.6ZM40,46a1,1,0,0,1,0,2H20a1,1,0,0,1,0-2ZM30,58c-2.9,0-5.321-1.721-5.879-4H35.879C35.321,56.279,32.9,58,30,58Zm9-6H21a1,1,0,0,1,0-2H39a1,1,0,0,1,0,2Zm.055-8H31V37.583a5.039,5.039,0,0,0,3.22.271,4.948,4.948,0,0,0,3.64-3.67A5,5,0,0,0,31,28.425V23h5.425a1.978,1.978,0,0,0,1.66-.894,2.021,2.021,0,0,0,.159-1.92,3,3,0,1,1,5.665-1.942,3.051,3.051,0,0,1-.158,1.952A1.993,1.993,0,0,0,45.574,23h4.4a19.934,19.934,0,0,1-7.441,14.6A9.446,9.446,0,0,0,39.055,44Z" fill="#fff"></path>
    </g>
  </g>
</svg>
